 <svg  version="1.0" xmlns="http://www.w3.org/2000/svg"  width="300.000000pt" height="360.000000pt" viewBox="0 0 300.000000 360.000000"  preserveAspectRatio="xMidYMid meet">  <g transform="translate(0.000000,360.000000) scale(0.100000,-0.100000)" fill="#ffffff" stroke="none"> <path d="M1343 3446 c-278 -53 -483 -298 -486 -581 -2 -175 51 -305 174 -429 l79 -78 0 -207 0 -206 -285 3 c-308 3 -337 -1 -369 -50 -9 -13 -97 -249 -197 -524 l-181 -499 2 -315 c1 -351 0 -346 71 -382 32 -17 116 -18 1334 -18 830 0 1313 4 1336 10 19 6 46 22 60 36 24 25 24 26 31 322 4 163 8 307 9 318 1 21 -339 980 -368 1037 -8 15 -28 37 -46 47 -30 19 -52 20 -369 20 l-338 0 0 204 0 205 78 78 c118 119 172 248 172 415 0 104 -15 168 -60 263 -116 243 -385 380 -647 331z m284 -61 c98 -33 165 -77 239 -158 98 -107 144 -226 144 -372 0 -169 -62 -304 -194 -426 l-51 -47 -3 -209 c-3 -199 -2 -210 18 -235 l20 -27 333 -3 c293 -3 336 -5 359 -20 30 -20 23 -2 231 -583 l153 -430 -4 -308 c-4 -298 -5 -309 -26 -333 l-21 -25 -1330 0 -1329 1 -23 22 c-22 23 -23 25 -23 330 l-1 308 176 487 c96 269 184 499 194 513 l18 25 296 5 c292 5 297 5 319 28 22 22 23 30 26 214 2 105 1 202 -3 216 -3 13 -38 56 -78 95 -118 118 -170 241 -170 402 0 157 52 284 163 395 112 112 226 158 393 159 80 1 113 -4 174 -24z"/> <path d="M1329 3237 c-118 -40 -192 -107 -246 -223 -25 -52 -28 -71 -28 -159 0 -92 3 -106 32 -167 41 -88 113 -160 201 -201 62 -29 75 -32 167 -32 87 0 107 4 158 27 164 77 268 267 238 434 -16 88 -63 175 -125 232 -116 106 -256 137 -397 89z m262 -45 c113 -51 187 -138 216 -256 40 -163 -41 -333 -195 -408 -60 -30 -75 -33 -157 -33 -78 0 -98 4 -152 29 -73 34 -153 113 -186 183 -31 68 -31 227 0 295 42 90 135 171 236 204 58 19 182 12 238 -14z"/> <path d="M1330 2281 c-18 -15 -19 -37 -22 -398 l-3 -381 24 -26 c23 -25 30 -26 126 -26 157 0 145 -35 145 428 0 459 14 420 -146 420 -82 0 -109 -4 -124 -17z m125 -26 c28 0 63 3 78 5 l28 5 2 -388 2 -387 -111 0 -110 0 0 389 1 390 30 -7 c16 -4 53 -7 80 -7z"/> <path d="M609 1726 c-16 -16 -53 -104 -107 -257 -46 -129 -104 -292 -130 -363 -43 -119 -45 -130 -31 -154 9 -17 27 -29 49 -34 48 -10 2188 -10 2225 0 17 5 36 19 44 33 12 22 3 54 -115 383 -77 215 -138 371 -152 388 l-24 28 -279 0 -280 0 -24 -25 c-25 -24 -25 -26 -25 -205 0 -167 -1 -181 -20 -200 -19 -19 -33 -20 -289 -20 -268 0 -270 0 -285 22 -13 18 -16 55 -16 191 0 175 -8 217 -45 231 -9 3 -119 6 -244 6 -227 0 -228 0 -252 -24z m501 -209 c0 -277 -13 -267 337 -267 132 0 254 5 275 10 20 6 46 22 58 37 19 24 20 39 20 219 l0 194 284 0 284 0 10 -27 c105 -294 252 -702 256 -713 6 -13 -124 -15 -1134 -15 -627 0 -1140 0 -1140 1 0 1 171 479 265 742 3 9 61 12 245 12 l240 0 0 -193z"/> <path d="M302 737 c-21 -22 -22 -33 -22 -178 0 -150 1 -156 23 -177 l23 -22 1168 0 1167 0 24 25 c24 23 25 28 25 178 0 148 -1 154 -23 175 l-23 22 -1170 0 -1171 0 -21 -23z m2373 -177 l0 -160 -1182 0 -1183 0 0 160 0 160 1183 0 1182 0 0 -160z"/> </g> </svg> 