 <svg  version="1.0" xmlns="http://www.w3.org/2000/svg"  width="300.000000pt" height="166.000000pt" viewBox="0 0 300.000000 166.000000"  preserveAspectRatio="xMidYMid meet">  <g transform="translate(0.000000,166.000000) scale(0.100000,-0.100000)" fill="#6b42ff" stroke="none"> <path d="M525 1611 c-47 -9 -96 -97 -65 -116 6 -3 10 -16 10 -29 0 -12 12 -38 26 -57 14 -19 35 -52 46 -74 11 -22 24 -42 27 -45 38 -28 69 -111 92 -237 5 -29 17 -74 27 -100 23 -65 73 -90 197 -101 l90 -8 -42 -22 c-66 -34 -169 -137 -198 -196 -23 -48 -25 -59 -19 -139 6 -77 10 -89 35 -113 22 -21 29 -37 29 -65 0 -44 21 -69 59 -69 21 0 32 -9 50 -40 19 -33 27 -40 53 -40 18 0 41 -9 54 -21 14 -13 27 -18 36 -13 7 5 44 7 81 5 l69 -3 46 49 c52 53 108 143 193 309 49 97 55 113 43 129 -7 10 -11 23 -7 29 4 7 3 8 -4 1 -6 -5 -42 -81 -81 -168 -39 -87 -86 -181 -104 -208 -28 -41 -38 -49 -65 -49 -42 0 -47 11 -25 52 11 18 45 80 78 138 32 58 75 128 95 155 46 63 93 144 87 151 -7 6 -158 -208 -205 -291 -22 -38 -53 -98 -68 -132 -16 -35 -32 -63 -36 -63 -4 0 -14 7 -23 15 -13 14 -13 21 0 68 17 57 76 189 113 252 13 22 42 55 65 74 67 55 186 169 186 179 0 4 -13 23 -28 40 -28 32 -29 32 -153 37 -70 3 -150 13 -184 23 -42 12 -97 17 -185 17 -69 0 -131 4 -137 8 -14 9 -18 83 -5 90 4 3 90 11 192 18 l186 12 109 -60 c114 -63 155 -80 155 -66 0 4 -28 23 -63 41 -133 68 -223 132 -294 208 -40 43 -70 81 -67 86 3 5 11 5 17 0 7 -6 41 -17 76 -26 35 -9 79 -25 96 -36 18 -11 88 -78 156 -148 113 -116 127 -128 147 -119 21 10 41 52 29 64 -3 3 4 15 15 27 69 72 129 202 127 275 -1 37 -3 33 -20 -57 -8 -37 -28 -79 -67 -137 -51 -75 -92 -112 -92 -82 0 6 -18 41 -40 79 -56 94 -72 140 -80 238 l-8 85 2 -95 c1 -88 4 -101 38 -173 21 -43 48 -92 59 -109 12 -17 25 -49 30 -72 7 -41 7 -41 -10 -16 -81 123 -340 392 -441 459 -177 116 -411 200 -505 182z m-13 -63 c-15 -15 -26 -4 -18 18 5 13 9 15 18 6 9 -9 9 -15 0 -24z m88 -3 c16 -19 4 -35 -26 -35 -24 0 -32 14 -14 25 6 4 8 11 5 16 -10 15 22 10 35 -6z m138 -32 c23 -15 42 -31 42 -35 0 -9 -99 2 -122 14 -22 11 -23 28 -2 28 8 0 12 5 9 10 -12 20 32 9 73 -17z m-220 -15 c-6 -18 -28 -21 -28 -4 0 9 7 16 16 16 9 0 14 -5 12 -12z m112 -23 c10 -12 9 -16 -5 -21 -17 -7 -38 13 -29 28 8 12 20 10 34 -7z m231 5 c21 -12 26 -40 7 -40 -16 0 -29 9 -47 33 -12 15 -11 17 3 17 10 0 26 -5 37 -10z m94 -31 c4 -6 4 -13 1 -16 -7 -7 -46 26 -46 39 0 10 36 -8 45 -23z m-426 -10 c-9 -17 -13 -19 -19 -8 -11 16 -4 29 16 29 12 0 13 -4 3 -21z m55 5 c22 -8 20 -31 -3 -43 -23 -13 -29 -7 -23 24 5 28 4 27 26 19z m126 -14 c0 -9 -50 -23 -57 -16 -3 3 -3 12 0 19 6 15 57 12 57 -3z m135 -16 c0 -15 -7 -19 -29 -17 -41 3 -56 21 -33 38 24 17 62 5 62 -21z m140 -3 c6 -1 3 -6 -5 -12 -8 -6 -11 -12 -5 -15 35 -15 75 -46 70 -54 -10 -17 -25 -11 -58 22 -26 26 -41 32 -79 33 -34 1 -48 -2 -48 -12 0 -7 10 -13 24 -13 31 0 87 -19 106 -36 12 -12 12 -16 -5 -28 -22 -16 -64 -2 -100 32 -21 21 -22 21 -38 1 -9 -10 -26 -19 -37 -19 -23 0 -60 -29 -60 -47 0 -6 -4 -15 -10 -18 -23 -14 -7 27 23 59 17 19 38 42 46 51 7 9 19 14 27 11 8 -3 14 1 14 8 0 33 52 47 135 37z m-218 -36 c7 -20 -24 -55 -48 -55 -21 0 -43 35 -35 56 8 20 75 19 83 -1z m309 -19 c21 -19 35 -38 31 -42 -4 -4 -27 11 -50 34 -50 50 -37 56 19 8z m-436 5 c0 -14 -28 -33 -39 -27 -5 3 -11 0 -14 -6 -2 -7 -8 -10 -11 -6 -11 9 26 46 47 47 9 1 17 -3 17 -8z m66 -73 c7 -12 -25 -48 -42 -48 -10 0 -13 10 -10 33 3 17 5 33 5 34 3 5 42 -11 47 -19z m-86 3 c0 -17 -18 -21 -24 -6 -3 9 0 15 9 15 8 0 15 -4 15 -9z m302 -11 c35 -10 78 -50 78 -73 0 -6 -28 -8 -79 -3 -100 8 -141 22 -141 47 0 35 70 49 142 29z m223 0 c8 -13 -15 -13 -35 0 -12 8 -11 10 7 10 12 0 25 -4 28 -10z m-394 -76 c11 -14 10 -18 -6 -30 -37 -27 -53 -8 -36 44 3 8 31 -1 42 -14z m-81 -4 c0 -5 -7 -10 -15 -10 -8 0 -15 5 -15 10 0 6 7 10 15 10 8 0 15 -4 15 -10z m407 -72 l46 -47 -173 2 -174 2 -10 32 c-16 58 -1 65 141 61 l123 -3 47 -47z m-333 -14 c9 -23 8 -24 -12 -24 -26 0 -34 11 -21 27 15 17 26 17 33 -3z m-54 -9 c0 -8 -4 -15 -10 -15 -5 0 -10 7 -10 15 0 8 5 15 10 15 6 0 10 -7 10 -15z m38 -64 c-5 -24 -38 -27 -38 -3 0 10 3 21 6 25 11 11 35 -5 32 -22z m31 -120 c-3 -6 -10 -7 -18 -2 -7 5 -10 14 -6 21 9 14 29 -2 24 -19z m307 -27 c30 -8 54 -18 54 -22 0 -4 -7 -16 -15 -27 -15 -18 -16 -18 -44 -2 -16 9 -38 17 -48 17 -11 0 -23 3 -27 8 -4 4 -12 8 -17 8 -5 1 -12 3 -16 4 -15 5 -28 7 -53 9 -23 2 -24 3 -5 11 32 14 113 11 171 -6z m366 -51 c10 -9 18 -22 18 -30 0 -22 -37 -15 -53 11 -24 36 1 50 35 19z m-62 -17 c0 -24 -178 -36 -225 -14 -14 6 -25 15 -25 20 0 4 56 8 125 8 99 0 125 -3 125 -14z m-332 -5 c10 -6 8 -10 -10 -14 -50 -14 -83 -5 -61 16 9 10 55 8 71 -2z m88 -31 c35 -14 25 -21 -66 -49 -41 -13 -97 -34 -123 -48 -50 -25 -67 -24 -67 6 0 36 36 65 102 82 75 20 117 23 154 9z m284 1 c0 -20 -141 -138 -201 -169 -35 -17 -83 -43 -106 -58 l-43 -25 0 23 c0 47 13 69 61 103 35 25 49 42 49 59 0 35 18 44 111 60 103 17 129 19 129 7z m-270 -68 c-1 -14 -84 -71 -155 -105 -38 -19 -89 -46 -112 -61 -51 -33 -68 -35 -51 -6 11 18 10 23 -12 41 -21 17 -22 19 -5 16 12 -2 23 6 32 22 7 14 13 20 13 13 0 -13 48 3 103 33 68 38 188 67 187 47z m-290 -32 c0 -10 -53 -51 -64 -51 -4 0 -6 8 -4 18 4 24 68 55 68 33z m-70 -85 c0 -8 -7 -16 -15 -20 -10 -4 -15 1 -15 14 0 11 7 20 15 20 8 0 15 -6 15 -14z m256 -18 c-3 -18 -9 -34 -13 -35 -44 -16 -117 -70 -138 -103 -28 -44 -39 -48 -67 -23 -36 32 -22 50 88 123 58 39 112 70 121 70 10 0 13 -8 9 -32z m-250 -43 c7 -17 -12 -45 -31 -45 -6 0 -12 13 -12 30 0 23 5 30 19 30 10 0 21 -7 24 -15z m361 -52 c-38 -61 -67 -156 -67 -217 0 -20 -1 -36 -2 -36 -3 0 -100 29 -108 32 -3 2 -4 8 -2 15 6 27 63 146 83 175 20 28 120 100 128 93 1 -2 -13 -30 -32 -62z m-146 -67 c-17 -35 -33 -76 -37 -90 -7 -27 -18 -33 -30 -15 -4 6 -19 9 -36 5 -23 -5 -29 -3 -25 8 3 7 1 18 -5 24 -11 11 10 60 35 80 31 26 122 71 125 62 2 -5 -10 -39 -27 -74z m-221 29 c10 -13 10 -19 -5 -35 -22 -25 -32 -19 -33 20 -1 33 17 40 38 15z m26 -93 c-4 -3 -12 0 -19 7 -9 9 -9 14 3 21 11 7 16 5 18 -6 2 -9 1 -18 -2 -22z m39 -57 c0 -16 -6 -30 -12 -32 -7 -3 -13 2 -13 11 0 9 -4 16 -10 16 -14 0 -12 27 3 33 22 9 32 1 32 -28z m45 -36 c0 -18 -2 -19 -15 -9 -8 7 -15 16 -15 21 0 5 7 9 15 9 9 0 15 -9 15 -21z m70 -18 c15 -28 12 -51 -5 -51 -8 0 -15 5 -15 11 0 6 -7 9 -15 6 -22 -9 -26 7 -9 31 19 27 30 28 44 3z m64 -38 c-9 -36 -12 -39 -25 -26 -8 8 -7 17 3 32 18 29 30 26 22 -6z m69 -4 c7 -27 -1 -49 -18 -49 -18 0 -24 30 -11 53 14 23 22 22 29 -4z m97 -24 c0 -8 -6 -15 -14 -15 -17 0 -28 14 -19 24 12 12 33 6 33 -9z"/> <path d="M1040 340 c0 -27 3 -50 8 -50 4 0 7 23 8 50 0 28 -3 50 -8 50 -4 0 -8 -22 -8 -50z"/> <path d="M920 391 c0 -18 4 -30 9 -26 6 3 8 15 6 27 -7 34 -15 34 -15 -1z"/> <path d="M2384 1599 c-113 -19 -303 -103 -431 -191 -81 -56 -273 -249 -375 -377 -54 -67 -65 -87 -56 -98 10 -12 13 -12 20 1 5 8 66 73 136 144 109 109 135 131 185 150 33 12 68 22 79 22 10 0 28 5 39 10 38 21 19 -15 -44 -81 -61 -64 -146 -123 -300 -210 -43 -24 -73 -45 -67 -47 11 -4 24 2 194 92 64 34 96 45 115 42 14 -3 96 -11 181 -16 99 -7 157 -15 162 -23 14 -22 8 -64 -12 -82 -18 -16 -28 -17 -112 -6 -67 8 -104 8 -133 0 -112 -30 -169 -39 -268 -39 l-108 0 -30 -32 c-31 -35 -34 -43 -19 -53 6 -3 10 1 10 9 0 19 38 46 56 39 21 -8 -2 -43 -37 -56 -31 -12 -39 -27 -15 -27 8 0 21 -8 28 -18 7 -9 44 -44 83 -77 38 -33 78 -69 87 -80 27 -30 103 -190 128 -269 22 -68 22 -68 3 -88 -20 -20 -20 -19 -76 94 -50 100 -88 161 -223 356 -21 29 -39 50 -42 48 -5 -6 51 -99 119 -201 46 -69 169 -291 169 -306 0 -12 -38 -21 -60 -14 -29 9 -81 100 -151 264 -62 147 -63 148 -83 130 -11 -11 -28 -19 -38 -19 -16 0 -18 -9 -17 -82 1 -46 4 -114 8 -153 l7 -70 7 65 c4 36 10 103 15 150 l7 85 53 -110 c61 -126 109 -207 165 -282 44 -59 90 -79 164 -70 23 2 46 0 52 -6 8 -8 18 -4 34 11 13 12 33 22 46 22 34 0 57 16 71 50 12 28 23 34 75 42 16 3 21 12 23 48 3 36 10 51 39 77 27 25 34 39 31 58 -3 14 -1 48 4 76 9 47 7 57 -21 114 -35 70 -124 161 -194 197 l-42 22 100 11 c55 6 114 19 131 28 41 21 65 72 84 174 24 132 56 211 97 236 7 4 13 14 13 21 0 7 18 40 40 72 22 33 40 69 40 82 0 12 5 22 10 22 15 0 12 38 -6 76 -15 32 -25 38 -84 49 -8 1 -38 -1 -66 -6z m126 -54 c0 -9 -6 -12 -15 -9 -8 4 -15 10 -15 15 0 5 7 9 15 9 8 0 15 -7 15 -15z m-70 -4 c0 -5 3 -16 6 -25 4 -11 0 -16 -14 -16 -24 0 -36 15 -28 35 6 16 36 21 36 6z m-104 -16 c-3 -9 0 -15 9 -15 23 0 18 -19 -7 -29 -35 -13 -118 -20 -118 -10 0 9 99 69 114 69 4 0 6 -7 2 -15z m174 -41 c0 -9 -5 -14 -12 -12 -18 6 -21 28 -4 28 9 0 16 -7 16 -16z m-320 -2 c0 -5 -11 -19 -25 -32 -18 -17 -28 -21 -36 -13 -14 14 -4 32 25 43 28 11 36 12 36 2z m208 -11 c10 -6 10 -11 -3 -21 -14 -12 -18 -11 -25 0 -15 24 2 38 28 21z m-308 -9 c0 -14 -39 -46 -47 -39 -3 4 2 16 12 27 19 21 35 26 35 12z m410 -19 c-1 -18 -18 -35 -24 -24 -4 6 -4 16 -1 21 7 12 25 13 25 3z m-282 -15 c7 -7 12 -15 12 -18 0 -12 -49 -30 -65 -24 -23 9 -18 42 8 47 12 2 24 5 28 6 3 0 10 -4 17 -11z m135 -8 c6 -23 -12 -26 -45 -9 -17 9 -18 13 -7 20 24 15 46 10 52 -11z m89 -5 c6 -31 -3 -39 -28 -21 -15 12 -16 16 -5 30 19 22 28 20 33 -9z m-334 -25 c3 -21 1 -22 -31 -16 -29 5 -37 3 -51 -18 -21 -33 -55 -51 -68 -38 -7 7 -1 16 18 28 16 10 38 28 49 40 34 39 78 41 83 4z m-163 -50 c-41 -42 -55 -49 -55 -27 0 14 82 78 89 71 3 -2 -13 -22 -34 -44z m371 26 c8 -22 -14 -56 -36 -56 -22 0 -55 44 -45 60 10 15 75 12 81 -4z m-140 -11 c16 -8 25 -15 19 -15 -5 0 -1 -7 9 -15 11 -8 18 -16 15 -18 -8 -8 -79 5 -79 14 0 5 5 9 11 9 5 0 7 5 4 10 -10 16 -23 12 -29 -8 -4 -10 -22 -26 -41 -35 -40 -19 -69 -22 -60 -7 3 6 -1 7 -9 4 -11 -4 -16 0 -16 10 0 9 1 16 3 16 1 0 34 11 72 25 39 13 71 24 71 25 1 0 15 -7 30 -15z m234 -15 c11 -11 20 -26 20 -32 -1 -8 -6 -6 -14 4 -7 10 -16 15 -19 12 -3 -4 -14 -4 -23 0 -13 5 -14 9 -4 21 16 19 16 19 40 -5z m-150 -71 c0 -5 -9 -4 -19 3 -11 7 -17 16 -14 20 5 10 33 -10 33 -23z m87 -7 c3 -38 -15 -42 -43 -11 -18 20 -18 21 1 35 27 20 39 13 42 -24z m58 8 c-5 -8 -11 -8 -17 -2 -6 6 -7 16 -3 22 5 8 11 8 17 2 6 -6 7 -16 3 -22z m-194 -6 c17 -21 1 -45 -37 -56 -16 -5 -64 -10 -107 -13 -70 -4 -76 -2 -68 13 12 21 51 58 71 65 35 13 128 7 141 -9z m81 -69 c0 -5 4 -18 9 -27 8 -14 6 -18 -8 -18 -10 0 -27 7 -37 15 -16 12 -17 17 -6 30 14 17 41 17 42 0z m68 -5 c0 -5 -7 -10 -15 -10 -8 0 -15 5 -15 10 0 6 7 10 15 10 8 0 15 -4 15 -10z m-135 -30 c17 -14 19 -43 5 -71 -10 -17 -22 -19 -153 -18 -78 1 -153 4 -166 8 -23 6 -23 7 19 48 40 41 44 42 118 46 107 5 159 2 177 -13z m64 -53 c13 -16 5 -27 -21 -27 -18 0 -25 20 -11 33 10 10 19 8 32 -6z m18 -77 c2 -13 -3 -20 -12 -20 -21 0 -31 30 -14 40 16 11 22 6 26 -20z m-10 -76 c-9 -9 -28 6 -21 18 4 6 10 6 17 -1 6 -6 8 -13 4 -17z m-27 -35 c0 -5 -7 -9 -15 -9 -15 0 -20 12 -9 23 8 8 24 -1 24 -14z m-195 -24 c35 -9 42 -13 24 -14 -47 -2 -89 -13 -83 -22 4 -8 -42 -14 -68 -10 -5 0 -8 -3 -8 -8 0 -11 -61 1 -61 13 -1 13 92 55 121 54 14 0 48 -6 75 -13z m-195 -65 c0 -3 -12 -13 -27 -22 -22 -13 -47 -15 -118 -11 -111 6 -121 8 -105 28 9 11 37 14 131 12 65 -1 119 -4 119 -7z m146 -14 c17 -18 4 -23 -42 -18 -41 5 -45 19 -6 25 15 2 28 5 30 6 2 0 10 -5 18 -13z m-16 -38 c76 -17 98 -29 107 -56 10 -28 6 -62 -5 -62 -4 0 -22 9 -41 21 -19 11 -75 34 -125 51 -103 34 -119 45 -85 52 64 14 64 14 149 -6z m-292 0 c69 -9 86 -15 99 -34 8 -13 12 -28 9 -33 -4 -6 16 -27 44 -48 30 -22 53 -48 56 -63 3 -14 10 -37 14 -52 10 -32 8 -34 -13 -13 -8 8 -55 36 -104 63 -89 48 -245 170 -236 185 6 10 34 9 131 -5z m233 -72 c35 -13 90 -36 122 -51 32 -15 65 -24 73 -21 8 3 13 2 10 -3 -3 -5 1 -14 9 -21 18 -15 19 -37 3 -43 -10 -3 -10 -8 1 -21 24 -28 3 -30 -37 -3 -21 14 -75 44 -120 66 -85 43 -156 97 -146 112 8 13 14 12 85 -15z m235 -26 c18 -7 30 -18 31 -30 2 -25 -3 -25 -44 3 -50 34 -44 47 13 27z m59 -98 c-5 -6 -55 11 -55 19 0 5 6 6 14 3 8 -3 17 0 22 7 5 9 9 7 14 -7 4 -10 6 -20 5 -22z m-158 -38 c91 -62 112 -80 113 -95 0 -12 -43 -50 -53 -46 -7 2 -24 21 -39 43 -16 24 -51 54 -87 74 -55 32 -78 61 -65 82 11 17 36 6 131 -58z m-108 -157 c58 -123 58 -123 -1 -137 -48 -12 -72 -35 -50 -49 12 -7 5 -51 -9 -51 -12 0 -30 36 -21 45 4 3 7 10 8 13 0 4 4 15 9 25 13 31 -22 174 -60 242 -19 35 -35 68 -35 74 0 6 27 -10 60 -35 51 -39 66 -58 99 -127z m262 163 c16 0 18 -5 13 -27 -10 -40 -13 -41 -40 -10 -27 32 -31 52 -8 43 9 -3 24 -6 35 -6z m-140 -133 c16 -16 29 -36 29 -46 0 -22 -35 -55 -49 -46 -6 3 -14 -1 -17 -9 -11 -29 -21 -17 -58 74 -21 49 -42 92 -47 96 -5 3 -9 10 -9 15 0 15 118 -51 151 -84z m151 8 c-5 -41 -10 -44 -32 -15 -14 18 -16 28 -8 38 20 23 43 10 40 -23z m-47 -55 c0 -7 -6 -15 -12 -17 -8 -3 -13 4 -13 17 0 13 5 20 13 18 6 -3 12 -11 12 -18z m-15 -55 c10 -12 9 -16 -4 -21 -9 -3 -16 -12 -16 -20 0 -19 -16 -18 -24 2 -16 41 18 70 44 39z m-65 -45 c0 -7 -6 -15 -12 -17 -8 -3 -13 4 -13 17 0 13 5 20 13 18 6 -3 12 -11 12 -18z m-45 -30 c12 -23 5 -44 -12 -34 -6 4 -14 0 -19 -7 -16 -26 -32 4 -18 34 15 32 34 35 49 7z m-93 -25 c8 -9 12 -22 9 -30 -7 -19 -26 -19 -26 -1 0 8 -3 21 -6 30 -8 20 3 21 23 1z m-149 -37 c-6 -18 -28 -21 -28 -4 0 9 7 16 16 16 9 0 14 -5 12 -12z"/> <path d="M1936 402 c-2 -4 -1 -32 4 -62 l8 -55 1 63 c1 59 -2 72 -13 54z"/> <path d="M2060 385 c0 -22 4 -34 10 -30 6 3 10 17 10 30 0 13 -4 27 -10 30 -6 4 -10 -8 -10 -30z"/> <path d="M1357 1496 c-6 -16 2 -28 14 -20 12 7 11 34 0 34 -5 0 -11 -6 -14 -14z"/> <path d="M1630 1413 c1 -18 18 -35 24 -24 4 6 4 16 1 21 -7 12 -25 13 -25 3z"/> <path d="M2283 73 c9 -2 25 -2 35 0 9 3 1 5 -18 5 -19 0 -27 -2 -17 -5z"/> </g> </svg> 